<?xml version="1.0" encoding="UTF-8"?> <!-- Generator: Adobe Illustrator 22.1.0, SVG Export Plug-In . SVG Version: 6.00 Build 0) --> <svg xmlns="http://www.w3.org/2000/svg" xmlns:xlink="http://www.w3.org/1999/xlink" id="Layer_1" x="0px" y="0px" viewBox="0 0 238.4 133.4" style="enable-background:new 0 0 238.4 133.4;" xml:space="preserve"> <style type="text/css"> .st0{fill:#2979F2;} </style> <title>ebq logo refresh</title> <path class="st0" d="M25.3,76.5c0.6,1.6,1.5,3.1,2.7,4.4c1.1,1.1,2.4,2,3.8,2.7c1.9,0.8,3.9,1.4,5.9,1.6c6.8,0.7,13.6-0.5,19.7-3.3 c2.2-1,3.8-1.3,5.7,0.2c1.3,1,9.7,7.9,9.7,7.9c1.6,1.2,1.4,1.6,0,2.8s-5.1,3.7-5.1,3.7c-11.6,7.4-26.2,10.9-39.7,7.7 c-4.7-1.1-9.2-3.1-13.1-6c-4-3-7.3-6.7-9.7-11.1c-2.7-4.9-4.4-10.3-5-15.9C-0.4,65.8,0,60.3,1.5,55.1c1.3-4.8,3.6-9.3,6.8-13.2 c3.2-3.8,7.1-7,11.5-9.3c4.7-2.5,9.8-4.1,15.1-4.7c4.7-0.6,9.5-0.5,14.1,0.4c3.9,0.8,7.6,2.2,11,4.4c3,1.9,5.5,4.4,7.4,7.4 c1.8,2.8,2.9,5.9,3.4,9.2c0.4,3.3,0.2,6.6-0.7,9.7c-1.1,3.2-3.1,6-5.8,7.9c-3.7,2.9-7.9,5-12.5,6.1c-5.8,1.4-13,1.8-21.5,2.9 L25.3,76.5z M23.6,61.7c5,0,10-0.4,15-1c2.7-0.3,5.4-1,7.9-2c1.7-0.8,2.8-1.7,3.1-2.6c0.4-0.9,0.5-1.9,0.5-2.9 c-0.1-2.1-1.1-4-2.8-5.2c-1.9-1.4-4.6-2.1-8.3-2.1c-2.3,0-4.6,0.5-6.7,1.5c-1.8,0.9-3.4,2.1-4.8,3.6c-1.3,1.5-2.2,3.2-2.9,5 C24.1,57.8,23.7,59.7,23.6,61.7L23.6,61.7z"></path> <path class="st0" d="M77.9,6.9c0,0,15.2-5,19.4-6.8c0.6-0.3,1.3-0.1,1.6,0.4C99,0.8,99.1,1,99.1,1.2v34.7c2.3-2.1,5-3.9,7.9-5.3 c3.5-1.8,8-2.7,13.3-2.7c9.5-0.1,18.6,3.8,25.1,10.7c3.3,3.5,5.9,7.6,7.6,12.2c1.9,5.1,2.9,10.5,2.8,15.9c0.1,5.4-0.9,10.8-3,15.8 c-1.9,4.6-4.7,8.8-8.4,12.2c-3.6,3.4-7.9,6.1-12.6,7.9c-5,1.9-10.4,2.9-15.8,2.8c-6.5,0.1-12.9-1.2-18.9-3.8 c-5.5-2.4-10.4-6.1-14-10.9c-2.5-3.4-4.3-7.3-5.3-11.4c-1.3-5.2-2-10.6-1.9-16V11C76,11,76.1,7.6,77.9,6.9z M115.5,84.1 c4.4,0.1,8.8-1.6,11.9-4.8c3.1-3.2,4.7-7.3,4.7-12.5c0.2-4.7-1.5-9.3-4.7-12.7c-3.1-3.3-7.4-5.1-11.9-5c-2.3,0-4.5,0.4-6.6,1.4 c-2,0.9-3.8,2.2-5.3,3.8c-1.5,1.6-2.7,3.5-3.5,5.6c-0.8,2.2-1.2,4.6-1.2,7c0,5.4,1.6,9.6,4.7,12.7C106.8,82.6,111.1,84.3,115.5,84.1 z"></path> <path class="st0" d="M235.5,126.8c0,0-14.1,4.8-18.3,6.5c-0.6,0.3-1.3,0.1-1.6-0.4c-0.1-0.2-0.2-0.4-0.2-0.6V97.5 c-2.3,2.1-5,3.9-7.9,5.3c-3.5,1.8-7.9,2.7-13.3,2.7c-9.5,0.1-18.6-3.8-25.1-10.6c-3.3-3.5-5.9-7.6-7.6-12.2 c-1.9-5.1-2.9-10.5-2.8-15.9c-0.1-5.4,0.9-10.8,3-15.8c1.9-4.6,4.7-8.8,8.4-12.2c3.6-3.4,7.9-6.1,12.6-7.8c5-1.9,10.4-2.9,15.8-2.8 c6.5-0.1,12.9,1.2,18.9,3.7c5.5,2.4,10.3,6.2,14,11c2.5,3.4,4.3,7.3,5.3,11.4c1.3,5.2,2,10.6,1.9,16v52.9 C238.3,124.7,237.2,126.1,235.5,126.8z M199,49.3c-4.4-0.1-8.8,1.6-11.9,4.8c-3.1,3.2-4.7,7.3-4.7,12.5c-0.2,4.7,1.5,9.3,4.7,12.7 c3.1,3.3,7.4,5.1,11.9,5c2.3,0,4.5-0.4,6.6-1.4c2-0.9,3.8-2.2,5.3-3.8c1.5-1.6,2.7-3.5,3.5-5.6c0.8-2.2,1.2-4.6,1.2-7 c0-5.4-1.6-9.6-4.7-12.7C207.7,50.8,203.4,49.1,199,49.3z"></path> </svg> 